<?xml version="1.0" encoding="UTF-8" standalone="no"?>
<svg
   xmlns:svg="http://www.w3.org/2000/svg"
   xmlns="http://www.w3.org/2000/svg"
   xmlns:sodipodi="http://sodipodi.sourceforge.net/DTD/sodipodi-0.dtd"
   xmlns:inkscape="http://www.inkscape.org/namespaces/inkscape"
   sodipodi:docname="logo.svg"
   inkscape:version="1.1-dev (ee0c38c, 2020-05-22)"
   id="svg6"
   version="1.1"
   viewBox="0 0 210 297"
   height="297mm"
   width="210mm">
  <defs
     id="defs2" />
  <sodipodi:namedview
     inkscape:window-maximized="1"
     inkscape:window-y="-9"
     inkscape:window-x="-9"
     inkscape:window-height="1013"
     inkscape:window-width="1920"
     showgrid="false"
     inkscape:current-layer="layer1"
     inkscape:document-units="mm"
     inkscape:cy="623.57997"
     inkscape:cx="1195.5645"
     inkscape:zoom="0.5"
     inkscape:pageshadow="2"
     inkscape:pageopacity="0.0"
     borderopacity="1.0"
     bordercolor="#666666"
     pagecolor="#ffffff"
     id="base" />
  <g
     id="layer1"
     inkscape:groupmode="layer"
     inkscape:label="Capa 1">
    <g
       inkscape:export-ydpi="71.691467"
       inkscape:export-xdpi="71.691467"
       id="g893">
      <circle
         style="fill:#a02c2c;fill-opacity:1;stroke:none;stroke-width:14.576;stroke-linejoin:round;stroke-miterlimit:4;stroke-dasharray:none;stroke-opacity:1"
         id="path835"
         cx="321.05823"
         cy="125.84605"
         r="90.699776" />
      <path
         sodipodi:nodetypes="ccccccc"
         id="path856"
         d="M 341.01634,214.81253 340.49219,87.704164 c 0,-20.92606 34.98096,-21.3921 35.11861,0 v 75.216696 c 0.29657,8.58658 -5.50665,11.52549 -11.92461,11.9246 2.91216,10.80188 6.1902,19.58872 4.02482,28.98018 -8.66176,5.16323 -21.09712,10.20332 -26.69467,10.98689 z"
         style="fill:#ffffff;stroke:none;stroke-width:0.733821px;stroke-linecap:butt;stroke-linejoin:miter;stroke-opacity:1" />
      <path
         d="m 267.3721,71.834373 -3.53868,73.512567 c 2.72453,15.12417 11.72558,17.69691 20.57424,20.57281 -1.25793,14.88676 -8.81802,28.32828 -3.85555,42.03027 9.2607,4.03672 15.67781,5.5441 22.20109,6.9537 11.65639,-14.9896 1.47802,-31.4926 0,-48.98397 8.84866,-2.8759 17.84828,-5.44864 20.5728,-20.57281 l -3.53868,-73.512567 h -13.6273 v 61.850257 h -6.5528 V 132.6355 71.834373 H 287.5522 v 60.801127 1.04913 h -6.55136 V 71.834373 Z"
         style="fill:#ffffff;stroke:none;stroke-width:0.733821px;stroke-linecap:butt;stroke-linejoin:miter;stroke-opacity:1"
         id="path858"
         sodipodi:nodetypes="ccccccccccccccccccc" />
    </g>
  </g>
</svg>
